<svg width="26" height="26" viewBox="0 0 26 26" fill="none" xmlns="http://www.w3.org/2000/svg">
<path d="M13 21.5L18.6667 15.8333L16.6833 13.85L14.4167 16.1167V10.1667H11.5833V16.1167L9.31667 13.85L7.33333 15.8333L13 21.5ZM3.08333 25.75C2.30417 25.75 1.63739 25.4728 1.083 24.9184C0.528611 24.364 0.250944 23.6968 0.25 22.9167V5.24376C0.25 4.9132 0.303361 4.59445 0.410083 4.28751C0.516805 3.98056 0.675945 3.69723 0.8875 3.43751L2.65833 1.27709C2.91806 0.946535 3.24247 0.69248 3.63158 0.514924C4.02069 0.337369 4.42822 0.249063 4.85417 0.250007H21.1458C21.5708 0.250007 21.9784 0.338785 22.3684 0.516341C22.7585 0.693896 23.0829 0.94748 23.3417 1.27709L25.1125 3.43751C25.325 3.69723 25.4846 3.98056 25.5913 4.28751C25.6981 4.59445 25.7509 4.9132 25.75 5.24376V22.9167C25.75 23.6958 25.4728 24.3631 24.9184 24.9184C24.364 25.4738 23.6968 25.751 22.9167 25.75H3.08333ZM3.65 4.50001H22.35L21.1458 3.08334H4.85417L3.65 4.50001Z" fill="black"/>
</svg>
