<svg width="27" height="27" viewBox="0 0 27 27" fill="none" xmlns="http://www.w3.org/2000/svg">
<path d="M26.7316 13.3658V23.7614C26.7316 24.5492 26.4187 25.3046 25.8616 25.8616C25.3046 26.4187 24.5492 26.7316 23.7614 26.7316H2.97018C2.18244 26.7316 1.42696 26.4187 0.869945 25.8616C0.312928 25.3046 0 24.5492 0 23.7614V13.3658H26.7316ZM19.3062 0C19.7 0 20.0778 0.156464 20.3563 0.434972C20.6348 0.71348 20.7912 1.09122 20.7912 1.48509V2.97018H23.7614C24.5492 2.97018 25.3046 3.28311 25.8616 3.84012C26.4187 4.39714 26.7316 5.15261 26.7316 5.94035V10.3956H0V5.94035C0 5.15261 0.312928 4.39714 0.869945 3.84012C1.42696 3.28311 2.18244 2.97018 2.97018 2.97018H5.94035V1.48509C5.94035 1.09122 6.09682 0.71348 6.37533 0.434972C6.65383 0.156464 7.03157 0 7.42544 0C7.81931 0 8.19705 0.156464 8.47556 0.434972C8.75407 0.71348 8.91053 1.09122 8.91053 1.48509V2.97018H17.8211V1.48509C17.8211 1.09122 17.9775 0.71348 18.256 0.434972C18.5345 0.156464 18.9123 0 19.3062 0Z" fill="black"/>
</svg>
