<svg width="34" height="25" viewBox="0 0 34 25" fill="none" xmlns="http://www.w3.org/2000/svg">
<path d="M14.6208 0.524758C15.3647 0.179234 16.1775 0 17.0006 0C17.8238 0 18.6366 0.179234 19.3805 0.524758L33.1894 6.93871C33.43 7.05034 33.6336 7.22615 33.7769 7.44599C33.9203 7.66584 33.9976 7.92083 33.9999 8.18176C34.0023 8.44268 33.9297 8.69898 33.7903 8.92129C33.651 9.1436 33.4506 9.32293 33.2121 9.43873L19.4712 16.1221C18.7033 16.4956 17.8578 16.69 17.0006 16.69C16.1435 16.69 15.298 16.4956 14.5301 16.1221L2.83475 10.4332V16.6666C2.83475 17.0349 2.6855 17.3882 2.41984 17.6487C2.15418 17.9092 1.79386 18.0555 1.41816 18.0555C1.04246 18.0555 0.682142 17.9092 0.41648 17.6487C0.150818 17.3882 0.00157069 17.0349 0.00157069 16.6666V8.26372C-0.0115997 7.98915 0.0582892 7.71689 0.202456 7.48114C0.346623 7.24539 0.558638 7.05668 0.81186 6.93871L14.6208 0.524758ZM5.66793 14.9138V19.4444C5.66797 19.6271 5.70478 19.808 5.77624 19.9767C5.84771 20.1455 5.95243 20.2987 6.08441 20.4277L6.09007 20.4361L6.15523 20.4944L6.32523 20.65C7.21311 21.4258 8.17301 22.1187 9.1924 22.7194C11.085 23.8333 13.819 25 17.0006 25C20.1823 25 22.9163 23.8333 24.8117 22.7194C25.8311 22.1187 26.791 21.4258 27.6789 20.65L27.8489 20.4944L27.8942 20.45L27.9112 20.4333L27.914 20.4305L27.9197 20.4277C28.0512 20.2985 28.1554 20.1452 28.2264 19.9764C28.2973 19.8077 28.3337 19.6269 28.3334 19.4444V14.911L20.7291 18.611C19.5702 19.1745 18.2942 19.4677 17.0006 19.4677C15.7071 19.4677 14.431 19.1745 13.2722 18.611L5.66793 14.9138Z" fill="black"/>
</svg>
