<svg width="34" height="34" viewBox="0 0 34 34" fill="none" xmlns="http://www.w3.org/2000/svg">
<path fill-rule="evenodd" clip-rule="evenodd" d="M1.82143 0C2.06062 0 2.29747 0.0471127 2.51846 0.138648C2.73944 0.230183 2.94024 0.364349 3.10937 0.533484C3.27851 0.702619 3.41267 0.903412 3.50421 1.1244C3.59574 1.34538 3.64286 1.58224 3.64286 1.82143V7.89286C3.64292 8.69705 3.87115 9.48473 4.30104 10.1644C4.73093 10.844 5.34483 11.3878 6.07143 11.7324V1.82143C6.07143 1.33836 6.26333 0.875068 6.60491 0.533484C6.9465 0.1919 7.40979 0 7.89286 0C8.37593 0 8.83922 0.1919 9.1808 0.533484C9.52239 0.875068 9.71429 1.33836 9.71429 1.82143V11.7324C10.4409 11.3878 11.0548 10.844 11.4847 10.1644C11.9146 9.48473 12.1428 8.69705 12.1429 7.89286V1.82143C12.1429 1.33836 12.3348 0.875068 12.6763 0.533484C13.0179 0.1919 13.4812 0 13.9643 0C14.4474 0 14.9106 0.1919 15.2522 0.533484C15.5938 0.875068 15.7857 1.33836 15.7857 1.82143V7.89286C15.7855 9.56141 15.2566 11.187 14.2748 12.5361C13.2931 13.8853 11.909 14.8886 10.3214 15.402V31.5131C10.3214 32.1572 10.0656 32.775 9.61012 33.2304C9.15467 33.6858 8.53696 33.9417 7.89286 33.9417C7.24876 33.9417 6.63104 33.6858 6.1756 33.2304C5.72015 32.775 5.46429 32.1572 5.46429 31.5131V15.4044C3.87629 14.8909 2.49195 13.8872 1.51015 12.5376C0.528361 11.1879 -0.000344285 9.56182 1.68202e-07 7.89286V1.82143C1.68202e-07 1.33836 0.1919 0.875068 0.533484 0.533484C0.875068 0.1919 1.33836 0 1.82143 0ZM26.2286 0C21.9251 0 19.0861 4.19414 19.0861 8.47329C19.0861 11.883 20.8881 15.2393 23.7976 16.4633V31.5131C23.7976 32.1572 24.0534 32.775 24.5089 33.2304C24.9643 33.6858 25.582 33.9417 26.2261 33.9417C26.8702 33.9417 27.488 33.6858 27.9434 33.2304C28.3988 32.775 28.6547 32.1572 28.6547 31.5131V16.4609C31.569 15.2393 33.371 11.883 33.371 8.47086C33.371 4.19414 30.5296 0 26.2286 0Z" fill="black"/>
</svg>
