<svg width="100" height="100" viewBox="0 0 100 100" fill="none" xmlns="http://www.w3.org/2000/svg">
<rect width="100" height="100" rx="15" fill="#E20A17"/>
<path fill-rule="evenodd" clip-rule="evenodd" d="M89.9418 48.3381C89.5043 48.2188 89.0067 48.1591 88.4489 48.1591C87.7027 48.1591 87.0511 48.2689 86.4943 48.4886C85.9413 48.7083 85.5114 49.0208 85.2045 49.4261C84.9015 49.8314 84.75 50.3144 84.75 50.875C84.75 51.5265 84.9564 52.0625 85.3693 52.483C85.786 52.9034 86.4205 53.1989 87.2727 53.3693L88.7841 53.6705C89.1629 53.7462 89.4432 53.8561 89.625 54C89.7128 54.0677 89.7798 54.1446 89.8261 54.2308C89.803 54.4774 89.7776 54.7233 89.75 54.9686C89.6876 55.0467 89.6062 55.1177 89.5057 55.1818C89.2481 55.3447 88.9072 55.4261 88.483 55.4261C88.0511 55.4261 87.697 55.3352 87.4205 55.1534C87.1439 54.9678 86.9697 54.6989 86.8977 54.3466L84.517 54.4716C84.6345 55.3049 85.0341 55.964 85.7159 56.4489C86.4015 56.9299 87.322 57.1705 88.4773 57.1705C88.8203 57.1705 89.145 57.146 89.4515 57.0971C86.3117 75.7719 70.0674 90 50.5 90C28.6848 90 11 72.3152 11 50.5C11 28.6848 28.6848 11 50.5 11C71.5899 11 88.8194 27.5282 89.9418 48.3381ZM89.9981 50.8947L89.9489 50.8977C89.911 50.7083 89.8295 50.5379 89.7045 50.3864C89.5795 50.2311 89.4148 50.108 89.2102 50.017C89.0095 49.9223 88.7689 49.875 88.4886 49.875C88.1136 49.875 87.7973 49.9545 87.5398 50.1136C87.2822 50.2689 87.1534 50.4773 87.1534 50.7386C87.1534 50.947 87.2367 51.1231 87.4034 51.267C87.5701 51.411 87.8561 51.5265 88.2614 51.6136L89.8409 51.9318C89.8857 51.941 89.9299 51.9505 89.9735 51.9603C89.9864 51.6063 89.9946 51.251 89.9981 50.8947ZM54.7898 49.4375H57.2784C57.1989 48.7633 57.017 48.1648 56.733 47.642C56.4527 47.1193 56.089 46.678 55.642 46.3182C55.1951 45.9545 54.6818 45.678 54.1023 45.4886C53.5265 45.2992 52.9015 45.2045 52.2273 45.2045C51.2045 45.2045 50.2841 45.4394 49.4659 45.9091C48.6477 46.375 48 47.053 47.5227 47.9432C47.0455 48.8333 46.8068 49.9129 46.8068 51.1818C46.8068 52.447 47.0417 53.5246 47.5114 54.4148C47.9848 55.3049 48.6288 55.9848 49.4432 56.4545C50.2614 56.9242 51.1894 57.1591 52.2273 57.1591C52.9735 57.1591 53.642 57.0473 54.233 56.8239C54.8277 56.5966 55.339 56.2898 55.767 55.9034C56.1989 55.5133 56.5417 55.072 56.7955 54.5795C57.053 54.0833 57.214 53.5682 57.2784 53.0341L54.7898 53.0227C54.733 53.3333 54.6307 53.6098 54.483 53.8523C54.339 54.0947 54.1572 54.3011 53.9375 54.4716C53.7178 54.6383 53.4659 54.7652 53.1818 54.8523C52.9015 54.9394 52.5966 54.983 52.267 54.983C51.6799 54.983 51.1629 54.839 50.7159 54.5511C50.2689 54.2633 49.9205 53.8371 49.6705 53.2727C49.4242 52.7083 49.3011 52.0114 49.3011 51.1818C49.3011 50.375 49.4242 49.6894 49.6705 49.125C49.9167 48.5568 50.2633 48.125 50.7102 47.8295C51.1572 47.5303 51.6818 47.3807 52.2841 47.3807C52.6174 47.3807 52.9261 47.428 53.2102 47.5227C53.4981 47.6174 53.7519 47.7538 53.9716 47.9318C54.1913 48.1098 54.3712 48.3258 54.5114 48.5795C54.6515 48.8295 54.7443 49.1155 54.7898 49.4375ZM58.9972 48.2727V57H61.4176V52.0625C61.4176 51.7064 61.4972 51.392 61.6562 51.1193C61.8191 50.8466 62.0388 50.6345 62.3153 50.483C62.5956 50.3277 62.9138 50.25 63.2699 50.25C63.4366 50.25 63.6203 50.2633 63.821 50.2898C64.0218 50.3163 64.179 50.3466 64.2926 50.3807V48.233C64.1866 48.2064 64.0634 48.1856 63.9233 48.1705C63.7831 48.1553 63.6525 48.1477 63.5312 48.1477C63.0426 48.1477 62.6108 48.2879 62.2358 48.5682C61.8608 48.8447 61.5938 49.2538 61.4347 49.7955H61.3438V48.2727H58.9972ZM66.7912 56.608C67.4351 56.983 68.1984 57.1705 69.081 57.1705C69.9635 57.1705 70.7249 56.983 71.3651 56.608C72.009 56.2292 72.5052 55.7027 72.8537 55.0284C73.2022 54.3504 73.3764 53.5644 73.3764 52.6705C73.3764 51.7689 73.2022 50.9811 72.8537 50.3068C72.5052 49.6288 72.009 49.1023 71.3651 48.7273C70.7249 48.3485 69.9635 48.1591 69.081 48.1591C68.1984 48.1591 67.4351 48.3485 66.7912 48.7273C66.151 49.1023 65.6567 49.6288 65.3082 50.3068C64.9598 50.9811 64.7855 51.7689 64.7855 52.6705C64.7855 53.5644 64.9598 54.3504 65.3082 55.0284C65.6567 55.7027 66.151 56.2292 66.7912 56.608ZM70.098 54.9545C69.8291 55.1818 69.4938 55.2955 69.0923 55.2955C68.687 55.2955 68.3461 55.1818 68.0696 54.9545C67.7969 54.7235 67.5904 54.4091 67.4503 54.0114C67.3139 53.6136 67.2457 53.161 67.2457 52.6534C67.2457 52.1458 67.3139 51.6932 67.4503 51.2955C67.5904 50.8977 67.7969 50.5833 68.0696 50.3523C68.3461 50.1212 68.687 50.0057 69.0923 50.0057C69.4938 50.0057 69.8291 50.1212 70.098 50.3523C70.367 50.5833 70.5696 50.8977 70.706 51.2955C70.8461 51.6932 70.9162 52.1458 70.9162 52.6534C70.9162 53.161 70.8461 53.6136 70.706 54.0114C70.5696 54.4091 70.367 54.7235 70.098 54.9545ZM80.5469 48.2727V53.2841C80.5507 53.6742 80.473 54.0019 80.3139 54.267C80.1586 54.5322 79.9541 54.733 79.7003 54.8693C79.4465 55.0019 79.1738 55.0682 78.8821 55.0682C78.4238 55.0682 78.0582 54.9186 77.7855 54.6193C77.5128 54.3201 77.3745 53.9129 77.3707 53.3977V48.2727H74.9503V53.8295C74.9541 54.5114 75.0791 55.0966 75.3253 55.5852C75.5753 56.0739 75.9219 56.4508 76.3651 56.7159C76.8082 56.9811 77.3215 57.1136 77.9048 57.1136C78.5601 57.1136 79.1151 56.9583 79.5696 56.6477C80.0279 56.3371 80.3556 55.9261 80.5526 55.4148H80.6435V57H82.9673V48.2727H80.5469Z" fill="white"/>
</svg>
