<svg width="40" height="40" viewBox="0 0 40 40" fill="none" xmlns="http://www.w3.org/2000/svg">
<path d="M21.25 8.33341C21.25 8.66493 21.1183 8.98288 20.8839 9.2173C20.6495 9.45172 20.3315 9.58341 20 9.58341H10C9.88949 9.58341 9.78351 9.62731 9.70537 9.70545C9.62723 9.78359 9.58333 9.88957 9.58333 10.0001V30.0001C9.58333 30.1106 9.62723 30.2166 9.70537 30.2947C9.78351 30.3728 9.88949 30.4167 10 30.4167H20C20.3315 30.4167 20.6495 30.5484 20.8839 30.7829C21.1183 31.0173 21.25 31.3352 21.25 31.6667C21.25 31.9983 21.1183 32.3162 20.8839 32.5506C20.6495 32.7851 20.3315 32.9167 20 32.9167H10C8.39 32.9167 7.08333 31.6101 7.08333 30.0001V10.0001C7.08333 9.22653 7.39062 8.48467 7.93761 7.93769C8.48459 7.39071 9.22645 7.08341 10 7.08341H20C20.3315 7.08341 20.6495 7.21511 20.8839 7.44953C21.1183 7.68395 21.25 8.00189 21.25 8.33341Z" fill="#FF4141"/>
<path d="M13.98 18.1416C13.98 17.6995 14.1556 17.2756 14.4682 16.963C14.7807 16.6505 15.2046 16.4749 15.6467 16.4749H23.74C23.7783 15.8816 23.8267 15.2916 23.8833 14.6982L23.9333 14.1899C23.952 13.9983 24.0165 13.814 24.1215 13.6527C24.2266 13.4914 24.3689 13.3578 24.5366 13.2633C24.7043 13.1687 24.8923 13.116 25.0846 13.1096C25.277 13.1033 25.4681 13.1434 25.6417 13.2266C28.6884 14.6867 31.4465 16.6849 33.7833 19.1249L33.8333 19.1766C34.0479 19.4003 34.1676 19.6983 34.1676 20.0082C34.1676 20.3182 34.0479 20.6162 33.8333 20.8399L33.7833 20.8916C31.4465 23.3316 28.6884 25.3297 25.6417 26.7899C25.4681 26.8731 25.277 26.9132 25.0846 26.9068C24.8923 26.9004 24.7043 26.8477 24.5366 26.7532C24.3689 26.6586 24.2266 26.525 24.1215 26.3637C24.0165 26.2024 23.952 26.0181 23.9333 25.8266L23.8833 25.3182C23.8267 24.7266 23.7783 24.1349 23.74 23.5416H15.6467C15.2046 23.5416 14.7807 23.366 14.4682 23.0534C14.1556 22.7408 13.98 22.3169 13.98 21.8749V18.1416Z" fill="#FF4141"/>
</svg>
