<svg width="16" height="20" viewBox="0 0 16 20" fill="none" xmlns="http://www.w3.org/2000/svg">
<path fill-rule="evenodd" clip-rule="evenodd" d="M9.586 0C10.0556 0.000114731 10.5101 0.165434 10.87 0.467L11 0.586L15.414 5C15.746 5.33202 15.9506 5.77028 15.992 6.238L16 6.414V18C16.0002 18.5046 15.8096 18.9906 15.4665 19.3605C15.1234 19.7305 14.6532 19.9572 14.15 19.995L14 20H11V16.5C11 16.1271 10.8611 15.7676 10.6104 15.4916C10.3597 15.2156 10.0152 15.0428 9.644 15.007L9.5 15H6.5C6.12712 15 5.76761 15.1389 5.49158 15.3896C5.21555 15.6403 5.0428 15.9848 5.007 16.356L5 16.5V20H2C1.49542 20.0002 1.00943 19.8096 0.639452 19.4665C0.269471 19.1234 0.0428434 18.6532 0.00500021 18.15L1.00268e-07 18V2C-0.000159579 1.49542 0.190406 1.00943 0.533497 0.639452C0.876588 0.269471 1.34684 0.0428433 1.85 0.00500011L2 0H9.586ZM9 17V20H7V17H9ZM7 11H6C5.74512 11.0003 5.49997 11.0979 5.31463 11.2728C5.1293 11.4478 5.01776 11.687 5.00283 11.9414C4.98789 12.1958 5.07067 12.4464 5.23426 12.6418C5.39785 12.8373 5.6299 12.9629 5.883 12.993L6 13H7C7.25488 12.9997 7.50003 12.9021 7.68537 12.7272C7.8707 12.5522 7.98224 12.313 7.99717 12.0586C8.01211 11.8042 7.92933 11.5536 7.76574 11.3582C7.60215 11.1627 7.3701 11.0371 7.117 11.007L7 11ZM10 9H9C8.74512 9.00028 8.49997 9.09788 8.31463 9.27285C8.1293 9.44782 8.01777 9.68695 8.00283 9.94139C7.98789 10.1958 8.07067 10.4464 8.23426 10.6418C8.39785 10.8373 8.6299 10.9629 8.883 10.993L9 11H10C10.2549 10.9997 10.5 10.9021 10.6854 10.7272C10.8707 10.5522 10.9822 10.313 10.9972 10.0586C11.0121 9.80416 10.9293 9.55362 10.7657 9.35817C10.6021 9.16271 10.3701 9.0371 10.117 9.007L10 9ZM7 7H6C5.73478 7 5.48043 7.10536 5.29289 7.29289C5.10536 7.48043 5 7.73478 5 8C5 8.26522 5.10536 8.51957 5.29289 8.70711C5.48043 8.89464 5.73478 9 6 9H7C7.26522 9 7.51957 8.89464 7.70711 8.70711C7.89464 8.51957 8 8.26522 8 8C8 7.73478 7.89464 7.48043 7.70711 7.29289C7.51957 7.10536 7.26522 7 7 7ZM10 5H9C8.73478 5 8.48043 5.10536 8.29289 5.29289C8.10536 5.48043 8 5.73478 8 6C8 6.26522 8.10536 6.51957 8.29289 6.70711C8.48043 6.89464 8.73478 7 9 7H10C10.2652 7 10.5196 6.89464 10.7071 6.70711C10.8946 6.51957 11 6.26522 11 6C11 5.73478 10.8946 5.48043 10.7071 5.29289C10.5196 5.10536 10.2652 5 10 5Z" fill="black"/>
</svg>
