<svg width="35" height="35" viewBox="0 0 35 35" fill="none" xmlns="http://www.w3.org/2000/svg">
<path d="M22.1638 1.75424C24.5575 1.75424 26.7739 2.51151 28.5858 3.8044L11.7154 20.6729C11.539 20.8433 11.3983 21.0471 11.3015 21.2724C11.2047 21.4978 11.1538 21.7401 11.1516 21.9854C11.1495 22.2306 11.1962 22.4738 11.2891 22.7008C11.382 22.9278 11.5191 23.134 11.6925 23.3075C11.866 23.4809 12.0722 23.618 12.2992 23.7109C12.5262 23.8038 12.7694 23.8505 13.0146 23.8484C13.2598 23.8462 13.5022 23.7953 13.7276 23.6985C13.9529 23.6017 14.1567 23.461 14.3271 23.2846L31.1974 6.41419C32.5331 8.28895 33.2492 10.5343 33.2458 12.8362V31.306C33.2458 32.2857 32.8566 33.2253 32.1638 33.9181C31.4711 34.6108 30.5315 35 29.5518 35H3.69397C2.71427 35 1.77469 34.6108 1.08194 33.9181C0.389185 33.2253 0 32.2857 0 31.306V5.44822C0 4.46851 0.389185 3.52894 1.08194 2.83618C1.77469 2.14343 2.71427 1.75424 3.69397 1.75424H22.1638ZM34.4592 0.540772C34.8055 0.887134 35 1.35684 35 1.84659C35 2.33635 34.8055 2.80605 34.4592 3.15241L31.1956 6.41419C30.4763 5.40447 29.5937 4.52181 28.584 3.80255L31.8457 0.540772C32.1921 0.194516 32.6618 0 33.1516 0C33.6413 0 34.1129 0.194516 34.4592 0.540772Z" fill="#232323"/>
</svg>
