<svg width="24" height="24" viewBox="0 0 24 24" fill="none" xmlns="http://www.w3.org/2000/svg">
<path d="M18.6001 12.6634L12.1891 19.0697C11.3098 19.9487 10.1172 20.4425 8.87387 20.4422C7.63049 20.442 6.43812 19.9479 5.55907 19.0685C4.68002 18.1892 4.1863 16.9966 4.18652 15.7532C4.18674 14.5099 4.68089 13.3175 5.56024 12.4384L13.229 4.79079C13.8153 4.20482 14.6103 3.87576 15.4392 3.87598C15.8496 3.87609 16.256 3.95703 16.6352 4.1142C17.0143 4.27136 17.3588 4.50167 17.6489 4.79196C17.9391 5.08225 18.1692 5.42685 18.3261 5.80608C18.4831 6.1853 18.5638 6.59173 18.5637 7.00216C18.5636 7.41259 18.4827 7.81898 18.3255 8.19812C18.1683 8.57727 17.938 8.92174 17.6477 9.21188L17.6345 9.22438L10.1501 16.4291C10.0613 16.5144 9.95665 16.5815 9.842 16.6264C9.72734 16.6713 9.60497 16.6931 9.48186 16.6908C9.35875 16.6884 9.23731 16.6617 9.12449 16.6124C9.01167 16.5631 8.90967 16.492 8.82431 16.4033C8.73895 16.3145 8.6719 16.2099 8.627 16.0952C8.5821 15.9805 8.56022 15.8582 8.56262 15.7351C8.56501 15.6119 8.59163 15.4905 8.64096 15.3777C8.69028 15.2649 8.76134 15.1629 8.85009 15.0775L16.3274 7.88063C16.5612 7.64546 16.6919 7.32707 16.6909 6.99551C16.6898 6.66395 16.5571 6.34638 16.322 6.11266C16.2055 5.99693 16.0674 5.90528 15.9155 5.84292C15.7637 5.78056 15.601 5.74873 15.4368 5.74924C15.1053 5.75026 14.7877 5.88296 14.554 6.11813L6.88524 13.7634C6.35781 14.2911 6.06159 15.0066 6.06174 15.7527C6.06181 16.1221 6.13464 16.4878 6.27607 16.8291C6.4175 17.1704 6.62477 17.4804 6.88602 17.7416C7.14728 18.0027 7.45742 18.2099 7.79873 18.3512C8.14005 18.4925 8.50585 18.5651 8.87525 18.5651C9.62129 18.5649 10.3367 18.2684 10.8641 17.7408L17.2751 11.3345C17.3623 11.2473 17.4658 11.1782 17.5798 11.131C17.6937 11.0838 17.8158 11.0595 17.9391 11.0595C18.0625 11.0595 18.1846 11.0838 18.2985 11.131C18.4125 11.1782 18.516 11.2473 18.6032 11.3345C18.6904 11.4217 18.7596 11.5253 18.8068 11.6392C18.854 11.7532 18.8783 11.8753 18.8783 11.9986C18.8783 12.1219 18.854 12.244 18.8068 12.358C18.7596 12.4719 18.6904 12.5755 18.6032 12.6627L18.6001 12.6634Z" fill="black"/>
</svg>
