<svg width="42" height="42" viewBox="0 0 42 42" fill="none" xmlns="http://www.w3.org/2000/svg">
<path d="M42 21C42 32.598 32.598 42 21 42C9.40202 42 0 32.598 0 21C0 9.40202 9.40202 0 21 0C32.598 0 42 9.40202 42 21Z" fill="#777777"/>
<path d="M31.0828 28.3941L31.0916 14.2028C31.086 13.9387 31.0283 13.6783 30.9218 13.4366C30.7185 12.9493 30.3312 12.562 29.8439 12.3587C29.6023 12.2522 29.3419 12.1945 29.0777 12.1889L14.8865 12.1977C14.6218 12.1979 14.3598 12.2502 14.1152 12.3516C13.8707 12.453 13.6484 12.6016 13.4612 12.7888C13.083 13.167 12.8704 13.6797 12.8701 14.2141C12.8697 14.7486 13.0817 15.261 13.4594 15.6387C13.8371 16.0164 14.3495 16.2283 14.884 16.228L24.236 16.208L13.4582 26.9859C13.0816 27.3625 12.8698 27.8731 12.8695 28.4053C12.8692 28.9376 13.0803 29.448 13.4564 29.8241C13.8326 30.2002 14.3429 30.4114 14.8752 30.411C15.4075 30.4107 15.9181 30.1989 16.2947 29.8223L27.0725 19.0445L27.0525 28.3966C27.0513 28.6615 27.1025 28.924 27.2032 29.1689C27.304 29.4138 27.4522 29.6363 27.6394 29.8235C27.8267 30.0108 28.0491 30.159 28.2941 30.2598C28.539 30.3605 28.8015 30.4117 29.0664 30.4105C29.3314 30.4114 29.5939 30.3598 29.839 30.2588C30.084 30.1578 30.3067 30.0092 30.4941 29.8218C30.6816 29.6343 30.8301 29.4116 30.9312 29.1666C31.0322 28.9216 31.0837 28.659 31.0828 28.3941Z" fill="white"/>
</svg>
