<svg width="18" height="16" viewBox="0 0 18 16" fill="none" xmlns="http://www.w3.org/2000/svg">
<path d="M3.76296 5C3.62039 5 3.48366 5.05268 3.38284 5.14645C3.28203 5.24021 3.22539 5.36739 3.22539 5.5C3.22539 5.63261 3.28203 5.75979 3.38284 5.85355C3.48366 5.94732 3.62039 6 3.76296 6H11.2889C11.4314 6 11.5682 5.94732 11.669 5.85355C11.7698 5.75979 11.8264 5.63261 11.8264 5.5C11.8264 5.36739 11.7698 5.24021 11.669 5.14645C11.5682 5.05268 11.4314 5 11.2889 5H3.76296ZM3.76296 7C3.62039 7 3.48366 7.05268 3.38284 7.14645C3.28203 7.24021 3.22539 7.36739 3.22539 7.5V9.5C3.22539 9.63261 3.28203 9.75979 3.38284 9.85355C3.48366 9.94732 3.62039 10 3.76296 10H5.91322C6.05579 10 6.19252 9.94732 6.29333 9.85355C6.39415 9.75979 6.45078 9.63261 6.45078 9.5V7.5C6.45078 7.36739 6.39415 7.24021 6.29333 7.14645C6.19252 7.05268 6.05579 7 5.91322 7H3.76296ZM4.30052 9V8H5.37565V9H4.30052ZM8.06348 7C7.92091 7 7.78417 7.05268 7.68336 7.14645C7.58255 7.24021 7.52591 7.36739 7.52591 7.5C7.52591 7.63261 7.58255 7.75979 7.68336 7.85355C7.78417 7.94732 7.92091 8 8.06348 8H11.2889C11.4314 8 11.5682 7.94732 11.669 7.85355C11.7698 7.75979 11.8264 7.63261 11.8264 7.5C11.8264 7.36739 11.7698 7.24021 11.669 7.14645C11.5682 7.05268 11.4314 7 11.2889 7H8.06348ZM8.06348 9C7.92091 9 7.78417 9.05268 7.68336 9.14645C7.58255 9.24021 7.52591 9.36739 7.52591 9.5C7.52591 9.63261 7.58255 9.75979 7.68336 9.85355C7.78417 9.94732 7.92091 10 8.06348 10H11.2889C11.4314 10 11.5682 9.94732 11.669 9.85355C11.7698 9.75979 11.8264 9.63261 11.8264 9.5C11.8264 9.36739 11.7698 9.24021 11.669 9.14645C11.5682 9.05268 11.4314 9 11.2889 9H8.06348ZM1.07513 4C1.07513 3.46957 1.30168 2.96086 1.70493 2.58579C2.10818 2.21071 2.65511 2 3.22539 2H11.8264C12.3967 2 12.9436 2.21071 13.3469 2.58579C13.7501 2.96086 13.9767 3.46957 13.9767 4C14.547 4 15.0939 4.21071 15.4972 4.58579C15.9004 4.96086 16.1269 5.46957 16.1269 6V10.5C16.1269 11.163 15.8438 11.7989 15.3397 12.2678C14.8356 12.7366 14.152 13 13.4391 13H3.76296C3.0501 13 2.36644 12.7366 1.86238 12.2678C1.35831 11.7989 1.07513 11.163 1.07513 10.5V4ZM13.4391 10.5C13.2966 10.5 13.1598 10.4473 13.059 10.3536C12.9582 10.2598 12.9016 10.1326 12.9016 10V4C12.9016 3.73478 12.7883 3.48043 12.5867 3.29289C12.385 3.10536 12.1116 3 11.8264 3H3.22539C2.94025 3 2.66679 3.10536 2.46516 3.29289C2.26354 3.48043 2.15026 3.73478 2.15026 4V10.5C2.15026 10.8978 2.32017 11.2794 2.62261 11.5607C2.92505 11.842 3.33524 12 3.76296 12H13.4391C13.8668 12 14.277 11.842 14.5795 11.5607C14.8819 11.2794 15.0518 10.8978 15.0518 10.5V6C15.0518 5.73478 14.9385 5.48043 14.7369 5.29289C14.5353 5.10536 14.2618 5 13.9767 5V10C13.9767 10.1326 13.9201 10.2598 13.8192 10.3536C13.7184 10.4473 13.5817 10.5 13.4391 10.5Z" fill="black"/>
</svg>
