<svg width="31" height="35" viewBox="0 0 31 35" fill="none" xmlns="http://www.w3.org/2000/svg">
<path d="M3.44444 34.0244C2.49722 34.0244 1.68663 33.6915 1.01267 33.0258C0.338704 32.36 0.00114815 31.5588 0 30.6219V6.80488C0 5.86921 0.337556 5.0685 1.01267 4.40276C1.68778 3.73701 2.49837 3.40357 3.44444 3.40244H10.6778C11.0509 2.38171 11.6755 1.55945 12.5516 0.935671C13.4276 0.31189 14.4104 0 15.5 0C16.5907 0 17.5741 0.31189 18.4502 0.935671C19.3262 1.55945 19.9502 2.38171 20.3222 3.40244H27.5556C28.5028 3.40244 29.3139 3.73588 29.9891 4.40276C30.6642 5.06963 31.0011 5.87034 31 6.80488V30.6219C31 31.5576 30.663 32.3589 29.9891 33.0258C29.3151 33.6927 28.5039 34.0255 27.5556 34.0244H3.44444ZM15.5 5.52896C15.8731 5.52896 16.182 5.40818 16.4266 5.1666C16.6711 4.92503 16.7928 4.62051 16.7917 4.25305C16.7917 3.88445 16.6694 3.57993 16.4248 3.33949C16.1803 3.09905 15.872 2.97827 15.5 2.97713C15.1269 2.97713 14.8186 3.09792 14.5752 3.33949C14.3318 3.58107 14.2095 3.88559 14.2083 4.25305C14.2083 4.62165 14.3306 4.92673 14.5752 5.1683C14.8197 5.40988 15.128 5.5301 15.5 5.52896ZM7.75 27.2195H9.81667C10.0463 27.2195 10.269 27.1696 10.4849 27.0698C10.7007 26.97 10.8799 26.8498 11.0222 26.7091L20.8389 17.0973L17.1361 13.4396L7.40556 23.0515C7.23333 23.2216 7.10417 23.4127 7.01805 23.6248C6.93194 23.8369 6.88889 24.0575 6.88889 24.2866V26.3689C6.88889 26.5957 6.975 26.7942 7.14722 26.9643C7.31944 27.1344 7.52037 27.2195 7.75 27.2195ZM22.0444 15.9064L23.8528 14.0351C24.025 13.8649 24.1111 13.6665 24.1111 13.4396C24.1111 13.2128 24.025 13.0143 23.8528 12.8442L21.4417 10.4625C21.2694 10.2924 21.0685 10.2073 20.8389 10.2073C20.6093 10.2073 20.4083 10.2924 20.2361 10.4625L18.3417 12.2488L22.0444 15.9064Z" fill="black"/>
</svg>
