<svg width="12" height="15" viewBox="0 0 12 15" fill="none" xmlns="http://www.w3.org/2000/svg">
<path d="M6 7.09979C5.43168 7.09979 4.88663 6.90295 4.48477 6.55256C4.08291 6.20218 3.85714 5.72695 3.85714 5.23143C3.85714 4.73591 4.08291 4.26068 4.48477 3.91029C4.88663 3.55991 5.43168 3.36306 6 3.36306C6.56832 3.36306 7.11337 3.55991 7.51523 3.91029C7.91709 4.26068 8.14286 4.73591 8.14286 5.23143C8.14286 5.47678 8.08743 5.71974 7.97974 5.94642C7.87205 6.1731 7.71421 6.37907 7.51523 6.55256C7.31625 6.72606 7.08002 6.86368 6.82004 6.95757C6.56005 7.05147 6.2814 7.09979 6 7.09979ZM6 0C4.4087 0 2.88258 0.551167 1.75736 1.53225C0.632141 2.51333 0 3.84397 0 5.23143C0 9.155 6 14.9469 6 14.9469C6 14.9469 12 9.155 12 5.23143C12 3.84397 11.3679 2.51333 10.2426 1.53225C9.11742 0.551167 7.5913 0 6 0Z" fill="black"/>
</svg>
