<svg width="64" height="64" viewBox="0 0 64 64" fill="none" xmlns="http://www.w3.org/2000/svg">
<path d="M13.3333 0C9.79711 0 6.40573 1.40476 3.90524 3.90524C1.40476 6.40573 0 9.79711 0 13.3333V50.6667C0 54.2029 1.40476 57.5943 3.90524 60.0948C6.40573 62.5952 9.79711 64 13.3333 64H50.6667C54.2029 64 57.5943 62.5952 60.0948 60.0948C62.5952 57.5943 64 54.2029 64 50.6667V13.3333C64 9.79711 62.5952 6.40573 60.0948 3.90524C57.5943 1.40476 54.2029 0 50.6667 0H13.3333ZM47.2213 25.888L28.5547 44.5547C28.307 44.803 28.0127 45 27.6887 45.1345C27.3647 45.2689 27.0174 45.3381 26.6667 45.3381C26.3159 45.3381 25.9686 45.2689 25.6446 45.1345C25.3206 45 25.0264 44.803 24.7787 44.5547L16.7787 36.5547C16.5307 36.3067 16.3341 36.0124 16.1999 35.6884C16.0657 35.3645 15.9966 35.0173 15.9966 34.6667C15.9966 34.316 16.0657 33.9688 16.1999 33.6449C16.3341 33.3209 16.5307 33.0266 16.7787 32.7787C17.2794 32.2779 17.9585 31.9966 18.6667 31.9966C19.0173 31.9966 19.3645 32.0657 19.6884 32.1999C20.0124 32.3341 20.3067 32.5307 20.5547 32.7787L26.6667 38.896L43.4453 22.112C43.9461 21.6113 44.6252 21.33 45.3333 21.33C46.0415 21.33 46.7206 21.6113 47.2213 22.112C47.7221 22.6127 48.0034 23.2919 48.0034 24C48.0034 24.7081 47.7221 25.3873 47.2213 25.888Z" fill="black"/>
</svg>
