<svg width="21" height="17" viewBox="0 0 21 17" fill="none" xmlns="http://www.w3.org/2000/svg">
<path d="M11.0841 0.179297C10.7297 -0.0597656 10.2703 -0.0597656 9.91594 0.179297L5.45672 3.1875H1.575C0.705469 3.1875 0 3.90137 0 4.78125V15.4062C0 16.2861 0.705469 17 1.575 17H19.425C20.2945 17 21 16.2861 21 15.4062V4.78125C21 3.90137 20.2945 3.1875 19.425 3.1875H15.5433L11.0841 0.179297ZM8.4 13.8125C8.4 12.6404 9.34172 11.6875 10.5 11.6875C11.6583 11.6875 12.6 12.6404 12.6 13.8125V17H8.4V13.8125ZM3.15 6.375H4.2C4.48875 6.375 4.725 6.61406 4.725 6.90625V9.03125C4.725 9.32344 4.48875 9.5625 4.2 9.5625H3.15C2.86125 9.5625 2.625 9.32344 2.625 9.03125V6.90625C2.625 6.61406 2.86125 6.375 3.15 6.375ZM16.275 6.90625C16.275 6.61406 16.5112 6.375 16.8 6.375H17.85C18.1388 6.375 18.375 6.61406 18.375 6.90625V9.03125C18.375 9.32344 18.1388 9.5625 17.85 9.5625H16.8C16.5112 9.5625 16.275 9.32344 16.275 9.03125V6.90625ZM3.15 10.625H4.2C4.48875 10.625 4.725 10.8641 4.725 11.1562V13.2812C4.725 13.5734 4.48875 13.8125 4.2 13.8125H3.15C2.86125 13.8125 2.625 13.5734 2.625 13.2812V11.1562C2.625 10.8641 2.86125 10.625 3.15 10.625ZM16.275 11.1562C16.275 10.8641 16.5112 10.625 16.8 10.625H17.85C18.1388 10.625 18.375 10.8641 18.375 11.1562V13.2812C18.375 13.5734 18.1388 13.8125 17.85 13.8125H16.8C16.5112 13.8125 16.275 13.5734 16.275 13.2812V11.1562ZM7.6125 5.84375C7.6125 5.06882 7.91672 4.32563 8.45823 3.77767C8.99974 3.22971 9.73419 2.92188 10.5 2.92188C11.2658 2.92188 12.0003 3.22971 12.5418 3.77767C13.0833 4.32563 13.3875 5.06882 13.3875 5.84375C13.3875 6.61868 13.0833 7.36187 12.5418 7.90983C12.0003 8.45779 11.2658 8.76562 10.5 8.76562C9.73419 8.76562 8.99974 8.45779 8.45823 7.90983C7.91672 7.36187 7.6125 6.61868 7.6125 5.84375ZM10.5 4.25C10.2112 4.25 9.975 4.48906 9.975 4.78125V5.84375C9.975 6.13594 10.2112 6.375 10.5 6.375H11.55C11.8387 6.375 12.075 6.13594 12.075 5.84375C12.075 5.55156 11.8387 5.3125 11.55 5.3125H11.025V4.78125C11.025 4.48906 10.7887 4.25 10.5 4.25Z" fill="#232323"/>
</svg>
