<svg width="18" height="18" viewBox="0 0 18 18" fill="none" xmlns="http://www.w3.org/2000/svg">
<path fill-rule="evenodd" clip-rule="evenodd" d="M7.77565 0.158203C6.5587 0.158335 5.35948 0.449993 4.2784 1.00876C3.19731 1.56753 2.26581 2.37715 1.56187 3.36985C0.857938 4.36254 0.402051 5.50943 0.232375 6.71449C0.0626994 7.91955 0.184173 9.14773 0.586627 10.2962C0.989082 11.4447 1.6608 12.48 2.54557 13.3156C3.43033 14.1512 4.50238 14.7626 5.67198 15.0988C6.84158 15.435 8.07469 15.486 9.26809 15.2478C10.4615 15.0095 11.5804 14.4888 12.5313 13.7293L15.6422 16.8402C15.8018 16.9944 16.0157 17.0797 16.2376 17.0778C16.4596 17.0759 16.6719 16.9868 16.8288 16.8299C16.9858 16.6729 17.0748 16.4606 17.0767 16.2387C17.0787 16.0167 16.9933 15.8029 16.8391 15.6432L13.7282 12.5324C14.6238 11.4115 15.1847 10.0605 15.3463 8.63487C15.5079 7.20927 15.2637 5.767 14.6418 4.47409C14.0198 3.18117 13.0454 2.09015 11.8307 1.32662C10.616 0.563092 9.21038 0.158079 7.77565 0.158203ZM2.69664 7.77671C2.69664 7.10973 2.82801 6.44928 3.08326 5.83306C3.3385 5.21685 3.71262 4.65694 4.18425 4.18531C4.65587 3.71368 5.21578 3.33957 5.83199 3.08432C6.44821 2.82908 7.10866 2.69771 7.77565 2.69771C8.44263 2.69771 9.10308 2.82908 9.7193 3.08432C10.3355 3.33957 10.8954 3.71368 11.367 4.18531C11.8387 4.65694 12.2128 5.21685 12.468 5.83306C12.7233 6.44928 12.8547 7.10973 12.8547 7.77671C12.8547 9.12375 12.3195 10.4156 11.367 11.3681C10.4145 12.3206 9.12268 12.8557 7.77565 12.8557C6.42861 12.8557 5.13674 12.3206 4.18425 11.3681C3.23175 10.4156 2.69664 9.12375 2.69664 7.77671Z" fill="#DCDCDC"/>
</svg>
