<svg width="15" height="15" viewBox="0 0 15 15" fill="none" xmlns="http://www.w3.org/2000/svg">
<path d="M14.2383 5.62745C14.167 5.40909 14.0332 5.21647 13.8534 5.07355C13.6736 4.93062 13.4558 4.84369 13.227 4.82354L9.88711 4.53468L8.58047 1.421C8.49059 1.20926 8.34037 1.02865 8.14855 0.901692C7.95673 0.774731 7.73179 0.707031 7.50176 0.707031C7.27173 0.707031 7.04678 0.774731 6.85496 0.901692C6.66314 1.02865 6.51293 1.20926 6.42305 1.421L5.11465 4.53468L1.7748 4.82354C1.54476 4.84259 1.32546 4.92916 1.14443 5.07237C0.963397 5.21559 0.828694 5.40908 0.757221 5.62857C0.685747 5.84806 0.680688 6.08377 0.742677 6.30612C0.804667 6.52848 0.930944 6.72757 1.10566 6.87843L3.64394 9.09327L2.88223 12.3886C2.82999 12.613 2.84505 12.8478 2.92553 13.0637C3.00602 13.2795 3.14835 13.4669 3.33473 13.6023C3.52112 13.7378 3.74329 13.8152 3.97347 13.8251C4.20365 13.8349 4.43163 13.7767 4.62891 13.6577L7.5 11.914L10.3711 13.6577C10.5684 13.7765 10.7963 13.8346 11.0263 13.8247C11.2564 13.8147 11.4785 13.7372 11.6647 13.6018C11.851 13.4664 11.9933 13.2791 12.0737 13.0634C12.1542 12.8476 12.1693 12.6129 12.1172 12.3886L11.3555 9.09327L13.8938 6.87843C14.068 6.72702 14.1937 6.52753 14.255 6.30497C14.3163 6.08242 14.3104 5.84672 14.2383 5.62745ZM10.3271 8.12472C10.1665 8.26452 10.0469 8.44548 9.98135 8.64813C9.9158 8.85079 9.90671 9.06748 9.95508 9.27491L10.6225 12.1648L8.10645 10.6366C7.92373 10.5254 7.71393 10.4665 7.5 10.4665C7.28607 10.4665 7.07627 10.5254 6.89356 10.6366L4.37754 12.1648L5.04492 9.27491C5.09329 9.06748 5.0842 8.85079 5.01865 8.64813C4.95309 8.44548 4.83354 8.26452 4.67285 8.12472L2.44102 6.17765L5.37891 5.92335C5.59165 5.90513 5.79532 5.82891 5.96775 5.70297C6.14018 5.57703 6.27476 5.40621 6.35684 5.20909L7.5 2.48507L8.64316 5.20909C8.72524 5.40621 8.85982 5.57703 9.03225 5.70297C9.20468 5.82891 9.40835 5.90513 9.62109 5.92335L12.559 6.17765L10.3271 8.12472Z" fill="white"/>
</svg>
