<svg width="64" height="64" viewBox="0 0 64 64" fill="none" xmlns="http://www.w3.org/2000/svg">
<path fill-rule="evenodd" clip-rule="evenodd" d="M13 0C5.82031 0 0 5.82031 0 13V51C0 58.1797 5.82031 64 13 64H51C58.1797 64 64 58.1797 64 51V13C64 5.82031 58.1797 0 51 0H13ZM32 28.2627L21.473 17.7363C21.0094 17.2729 20.3822 17.0083 19.7277 17C19.0044 17 18.3107 17.2871 17.7992 17.7988C17.2877 18.3101 17.0005 19.0039 17.0005 19.7271C17.0237 20.3555 17.2874 20.9507 17.7368 21.3906L28.3456 31.999L17.7368 42.4707C17.614 42.5913 17.5045 42.7236 17.4099 42.8662C17.3204 43.001 17.2443 43.1445 17.1827 43.2949C17.0562 43.6045 16.9941 43.9365 17.0005 44.271C17.0005 44.9941 17.2877 45.6875 17.7992 46.1992C18.3107 46.7104 19.0044 46.998 19.7277 46.998C19.8931 46.9961 20.0575 46.9775 20.2186 46.9434C20.38 46.9092 20.5381 46.8589 20.6903 46.7935C20.9946 46.6621 21.2699 46.4722 21.5004 46.2344L32 35.7349L42.3906 46.2617C42.6361 46.5078 42.9302 46.7007 43.254 46.8276C43.4307 46.8965 43.6141 46.9453 43.8008 46.9731C43.9564 46.9961 44.1143 47.0044 44.2723 46.998C44.9956 46.998 45.6893 46.7104 46.2008 46.1992C46.7123 45.6875 46.9995 44.9941 46.9995 44.271C46.9763 43.6426 46.7126 43.0469 46.2632 42.6074L35.6544 31.999L46.2632 21.5269C46.5021 21.293 46.6907 21.0127 46.8173 20.7031C46.8876 20.5312 46.938 20.3521 46.9679 20.1694C46.9917 20.0234 47.0023 19.8755 46.9995 19.7271C46.9995 19.0039 46.7123 18.3101 46.2008 17.7988C45.9183 17.5161 45.5803 17.3022 45.2125 17.167C44.9142 17.0576 44.5962 17 44.2723 17C43.9346 17.0039 43.601 17.0757 43.2917 17.2119C42.9824 17.3477 42.7037 17.5444 42.4724 17.791L32 28.2627Z" fill="black"/>
</svg>
