<svg width="22" height="25" viewBox="0 0 22 25" fill="none" xmlns="http://www.w3.org/2000/svg">
<path d="M3 25C1.34315 25 0 23.6569 0 22V9.82429C0 8.88511 0.439819 8.00014 1.18843 7.43301L9.18843 1.3724C10.2598 0.560772 11.7402 0.560772 12.8116 1.3724L20.8116 7.43301C21.5602 8.00014 22 8.88511 22 9.82429V22C22 23.6569 20.6569 25 19 25H16.75C15.0931 25 13.75 23.6569 13.75 22V18.0278C13.75 16.509 12.5188 15.2778 11 15.2778C9.48122 15.2778 8.25 16.509 8.25 18.0278V22C8.25 23.6569 6.90685 25 5.25 25H3Z" fill="black"/>
</svg>
