<svg width="27" height="27" viewBox="0 0 27 27" fill="none" xmlns="http://www.w3.org/2000/svg">
<path fill-rule="evenodd" clip-rule="evenodd" d="M1.9094 0C1.403 0 0.917332 0.201168 0.55925 0.55925C0.201168 0.917332 0 1.403 0 1.9094L0 13.3658C0 13.8722 0.201168 14.3579 0.55925 14.7159C0.917332 15.074 1.403 15.2752 1.9094 15.2752H9.547C10.0534 15.2752 10.5391 15.074 10.8971 14.7159C11.2552 14.3579 11.4564 13.8722 11.4564 13.3658V1.9094C11.4564 1.403 11.2552 0.917332 10.8971 0.55925C10.5391 0.201168 10.0534 0 9.547 0L1.9094 0ZM15.2752 1.9094C15.2752 1.403 15.4764 0.917332 15.8344 0.55925C16.1925 0.201168 16.6782 0 17.1846 0L24.8222 0C25.3286 0 25.8143 0.201168 26.1723 0.55925C26.5304 0.917332 26.7316 1.403 26.7316 1.9094V5.74729C26.7316 6.2537 26.5304 6.73936 26.1723 7.09744C25.8143 7.45552 25.3286 7.65669 24.8222 7.65669H17.1846C16.6782 7.65669 16.1925 7.45552 15.8344 7.09744C15.4764 6.73936 15.2752 6.2537 15.2752 5.74729V1.9094ZM15.2752 13.3658C15.2752 12.8594 15.4764 12.3737 15.8344 12.0156C16.1925 11.6576 16.6782 11.4564 17.1846 11.4564H24.8222C25.3286 11.4564 25.8143 11.6576 26.1723 12.0156C26.5304 12.3737 26.7316 12.8594 26.7316 13.3658V24.8222C26.7316 25.3286 26.5304 25.8143 26.1723 26.1723C25.8143 26.5304 25.3286 26.7316 24.8222 26.7316H17.1846C16.6782 26.7316 16.1925 26.5304 15.8344 26.1723C15.4764 25.8143 15.2752 25.3286 15.2752 24.8222V13.3658ZM0 20.9843C0 20.4779 0.201168 19.9922 0.55925 19.6341C0.917332 19.2761 1.403 19.0749 1.9094 19.0749H9.547C10.0534 19.0749 10.5391 19.2761 10.8971 19.6341C11.2552 19.9922 11.4564 20.4779 11.4564 20.9843V24.8222C11.4564 25.3286 11.2552 25.8143 10.8971 26.1723C10.5391 26.5304 10.0534 26.7316 9.547 26.7316H1.9094C1.403 26.7316 0.917332 26.5304 0.55925 26.1723C0.201168 25.8143 0 25.3286 0 24.8222V20.9843Z" fill="black"/>
</svg>
