<svg width="41" height="41" viewBox="0 0 41 41" fill="none" xmlns="http://www.w3.org/2000/svg">
<path fill-rule="evenodd" clip-rule="evenodd" d="M20.5 41C31.8218 41 41 31.8218 41 20.5C41 9.17816 31.8218 0 20.5 0C9.17816 0 0 9.17816 0 20.5C0 31.8218 9.17816 41 20.5 41ZM24.2274 10.5872C23.3326 9.69237 22.1189 9.18966 20.8534 9.18966C19.588 9.18966 18.3743 9.69237 17.4795 10.5872C16.5846 11.482 16.0819 12.6957 16.0819 13.9612C16.0819 15.2267 16.5846 16.4404 17.4795 17.3352C18.3743 18.23 19.588 18.7328 20.8534 18.7328C22.1189 18.7328 23.3326 18.23 24.2274 17.3352C25.1223 16.4404 25.625 15.2267 25.625 13.9612C25.625 12.6957 25.1223 11.482 24.2274 10.5872ZM30.3966 25.8901C30.3966 23.2538 26.126 21.1185 20.8534 21.1185C15.5809 21.1185 11.3103 23.2538 11.3103 25.8901C11.3103 27.2077 12.3785 28.2759 13.6961 28.2759H28.0108C29.3284 28.2759 30.3966 27.2077 30.3966 25.8901Z" fill="black"/>
</svg>
