<svg width="25" height="24" viewBox="0 0 25 24" fill="none" xmlns="http://www.w3.org/2000/svg">
<path d="M12.5381 9C11.7424 9 10.9794 9.31607 10.4168 9.87868C9.85416 10.4413 9.53809 11.2044 9.53809 12C9.53809 12.7956 9.85416 13.5587 10.4168 14.1213C10.9794 14.6839 11.7424 15 12.5381 15C13.3337 15 14.0968 14.6839 14.6594 14.1213C15.222 13.5587 15.5381 12.7956 15.5381 12C15.5381 11.2044 15.222 10.4413 14.6594 9.87868C14.0968 9.31607 13.3337 9 12.5381 9ZM12.5381 17C11.212 17 9.94023 16.4732 9.00255 15.5355C8.06487 14.5979 7.53809 13.3261 7.53809 12C7.53809 10.6739 8.06487 9.40215 9.00255 8.46447C9.94023 7.52678 11.212 7 12.5381 7C13.8642 7 15.1359 7.52678 16.0736 8.46447C17.0113 9.40215 17.5381 10.6739 17.5381 12C17.5381 13.3261 17.0113 14.5979 16.0736 15.5355C15.1359 16.4732 13.8642 17 12.5381 17ZM12.5381 4.5C7.53809 4.5 3.26809 7.61 1.53809 12C3.26809 16.39 7.53809 19.5 12.5381 19.5C17.5381 19.5 21.8081 16.39 23.5381 12C21.8081 7.61 17.5381 4.5 12.5381 4.5Z" fill="white"/>
</svg>
