<svg width="49" height="49" viewBox="0 0 49 49" fill="none" xmlns="http://www.w3.org/2000/svg">
<path d="M13.592 47.698C15.1796 48.4482 17.0069 47.8229 18.4593 46.8361C20.0848 45.7316 22.0487 45.086 24.1636 45.086C26.372 45.086 28.4156 45.7899 30.0813 46.9851C31.5081 48.0087 33.3203 48.6803 34.9267 47.9711V47.9711C37.0502 47.0336 37.6065 44.3552 35.9156 42.7651C32.8475 39.8798 28.7125 38.1115 24.1636 38.1115C19.7729 38.1115 15.7679 39.759 12.7355 42.4682C11.005 44.0144 11.4939 46.7064 13.592 47.698V47.698Z" fill="white"/>
<path d="M0.947344 34.5722C1.89782 36.7999 4.71714 37.3403 6.29438 35.5023C8.85934 32.5133 10.4086 28.6309 10.4086 24.3874C10.4086 20.2104 8.90747 16.3832 6.4141 13.4135C4.85685 11.5589 2.03177 12.0694 1.0572 14.2864V14.2864C0.381215 15.8242 0.953927 17.5643 1.85328 18.983C2.84456 20.5468 3.41834 22.4002 3.41834 24.3874C3.41834 26.4139 2.82164 28.3013 1.79397 29.8842C0.879371 31.293 0.288182 33.0273 0.947344 34.5722V34.5722Z" fill="white"/>
<path d="M14.1112 1.17603C11.8917 2.16483 11.4004 5.00394 13.2779 6.54631C16.238 8.97804 20.0299 10.4383 24.1636 10.4383C28.4525 10.4383 32.3734 8.86636 35.3791 6.2684C37.2179 4.67912 36.6567 1.85338 34.4123 0.920795V0.920795C32.866 0.278266 31.1405 0.878009 29.7416 1.79823C28.1411 2.85103 26.2241 3.46377 24.1636 3.46377C22.1948 3.46377 20.3569 2.9043 18.801 1.93601C17.3793 1.05126 15.6408 0.494599 14.1112 1.17603V1.17603Z" fill="white"/>
<path d="M47.8254 13.77C46.8478 11.6743 44.17 11.1671 42.6105 12.8747C39.8359 15.913 38.1441 19.9531 38.1441 24.3874C38.1441 28.8894 39.888 32.985 42.7384 36.0386C44.3165 37.7291 46.9885 37.1931 47.9429 35.0866V35.0866C48.6696 33.4827 48.0076 31.6614 46.9897 30.2246C45.821 28.5749 45.1344 26.5612 45.1344 24.3874C45.1344 22.2537 45.7959 20.2742 46.9255 18.6419C47.9276 17.1938 48.5698 15.3659 47.8254 13.77V13.77Z" fill="white"/>
<path d="M30.7029 24.2749C30.7029 27.8162 27.8256 30.687 24.2764 30.687C20.7271 30.687 17.8498 27.8162 17.8498 24.2749C17.8498 20.7336 20.7271 17.8628 24.2764 17.8628C27.8256 17.8628 30.7029 20.7336 30.7029 24.2749Z" fill="white"/>
</svg>
